# xmcd
#
# Track frame offsets: 
#        150
#        20562
#        38387
#        58802
#
# Disc length: 1018 seconds
#
# Revision: 2
# Processed by: cddbd v1.5.2PL0 Copyright (c) Steve Scherf et al.
# Submitted via: ExactAudioCopyFreeDBPlugin 1.0
#
DISCID=2903f804
DTITLE=スクルド - 恋の法則
DYEAR=1992
DGENRE=Anime
TTITLE0=恋の法則
TTITLE1=子供扱いしないでよ
TTITLE2=恋の法則(オリジナル・カラオケ)
TTITLE3=子供扱いしないでよ(オリジナル・カラオケ)
EXTD=YEAR: 1992.06.19
EXTT0=
EXTT1=
EXTT2=
EXTT3=
PLAYORDER=
